# xmcd
# 
# Track frame offsets:
#     150
#     19467
#     39425
#     53952
#     69370
#     90202
#     105980
#     121295
#     132320
#     151122
#     167390
# 
# Disc length: 2869
# 
# Revision: 2
# Processed by: cddbd v1.5.2PL0 Copyright (c) Steve Scherf et al.
# Submitted via: BonkEnc v1.0.8
# 
DISCID=7c0b330b
DTITLE=チューリップ - 日本
DYEAR=1997
DGENRE=
TTITLE0=せめて最終電車まで
TTITLE1=ぼくのお話
TTITLE2=木馬
TTITLE3=タイピスト
TTITLE4=あいつのどこがいいんだ
TTITLE5=あのバスを停めて
TTITLE6=あこがれ・花の東京
TTITLE7=届かぬ夢
TTITLE8=都会
TTITLE9=そんなとき君がいれば
TTITLE10=甲子園
EXTD=
EXTT0=
EXTT1=
EXTT2=
EXTT3=
EXTT4=
EXTT5=
EXTT6=
EXTT7=
EXTT8=
EXTT9=
EXTT10=
PLAYORDER=
